<mxfile host="app.diagrams.net" agent="Mozilla/5.0 (Windows NT 10.0; Win64; x64) AppleWebKit/537.36 (KHTML, like Gecko) Chrome/135.0.0.0 Safari/537.36 Edg/135.0.0.0" version="26.2.14">
  <diagram name="第 1 页" id="4XerBwWcls5yMNmLj8xf">
    <mxGraphModel dx="1034" dy="578" grid="0" gridSize="10" guides="1" tooltips="1" connect="1" arrows="1" fold="1" page="0" pageScale="1" pageWidth="827" pageHeight="1169" math="0" shadow="0">
      <root>
        <mxCell id="0" />
        <mxCell id="1" parent="0" />
        <mxCell id="DB2zCFUbKiaBI7eAqc37-1" value="" style="edgeStyle=orthogonalEdgeStyle;rounded=0;orthogonalLoop=1;jettySize=auto;html=1;entryX=0.5;entryY=0;entryDx=0;entryDy=0;" parent="1" source="DB2zCFUbKiaBI7eAqc37-2" target="DB2zCFUbKiaBI7eAqc37-4" edge="1">
          <mxGeometry relative="1" as="geometry" />
        </mxCell>
        <mxCell id="DB2zCFUbKiaBI7eAqc37-2" value="开始" style="rounded=1;whiteSpace=wrap;html=1;" parent="1" vertex="1">
          <mxGeometry x="333.5" y="21" width="97" height="40" as="geometry" />
        </mxCell>
        <mxCell id="DB2zCFUbKiaBI7eAqc37-290" style="edgeStyle=orthogonalEdgeStyle;rounded=0;orthogonalLoop=1;jettySize=auto;html=1;" parent="1" source="DB2zCFUbKiaBI7eAqc37-4" target="DB2zCFUbKiaBI7eAqc37-8" edge="1">
          <mxGeometry relative="1" as="geometry" />
        </mxCell>
        <mxCell id="DB2zCFUbKiaBI7eAqc37-4" value="外部系统" style="rounded=0;whiteSpace=wrap;html=1;" parent="1" vertex="1">
          <mxGeometry x="322" y="89" width="120" height="60" as="geometry" />
        </mxCell>
        <mxCell id="DB2zCFUbKiaBI7eAqc37-7" value="" style="edgeStyle=orthogonalEdgeStyle;rounded=0;orthogonalLoop=1;jettySize=auto;html=1;" parent="1" source="DB2zCFUbKiaBI7eAqc37-8" target="DB2zCFUbKiaBI7eAqc37-11" edge="1">
          <mxGeometry relative="1" as="geometry" />
        </mxCell>
        <mxCell id="DB2zCFUbKiaBI7eAqc37-8" value="输入ApiToken" style="rounded=0;whiteSpace=wrap;html=1;" parent="1" vertex="1">
          <mxGeometry x="322" y="236" width="120" height="60" as="geometry" />
        </mxCell>
        <mxCell id="DB2zCFUbKiaBI7eAqc37-9" value="" style="edgeStyle=orthogonalEdgeStyle;rounded=0;orthogonalLoop=1;jettySize=auto;html=1;" parent="1" source="DB2zCFUbKiaBI7eAqc37-11" target="DB2zCFUbKiaBI7eAqc37-14" edge="1">
          <mxGeometry relative="1" as="geometry" />
        </mxCell>
        <mxCell id="DB2zCFUbKiaBI7eAqc37-10" style="edgeStyle=orthogonalEdgeStyle;rounded=0;orthogonalLoop=1;jettySize=auto;html=1;entryX=1;entryY=0.5;entryDx=0;entryDy=0;exitX=1;exitY=0.5;exitDx=0;exitDy=0;" parent="1" source="DB2zCFUbKiaBI7eAqc37-11" target="DB2zCFUbKiaBI7eAqc37-8" edge="1">
          <mxGeometry relative="1" as="geometry" />
        </mxCell>
        <mxCell id="DB2zCFUbKiaBI7eAqc37-11" value="系统认证" style="rhombus;whiteSpace=wrap;html=1;rounded=0;" parent="1" vertex="1">
          <mxGeometry x="318" y="340" width="128" height="59" as="geometry" />
        </mxCell>
        <mxCell id="DB2zCFUbKiaBI7eAqc37-12" style="edgeStyle=orthogonalEdgeStyle;rounded=0;orthogonalLoop=1;jettySize=auto;html=1;" parent="1" source="DB2zCFUbKiaBI7eAqc37-14" target="DB2zCFUbKiaBI7eAqc37-16" edge="1">
          <mxGeometry relative="1" as="geometry" />
        </mxCell>
        <mxCell id="DB2zCFUbKiaBI7eAqc37-13" style="edgeStyle=orthogonalEdgeStyle;rounded=0;orthogonalLoop=1;jettySize=auto;html=1;" parent="1" source="DB2zCFUbKiaBI7eAqc37-14" target="DB2zCFUbKiaBI7eAqc37-18" edge="1">
          <mxGeometry relative="1" as="geometry" />
        </mxCell>
        <mxCell id="DB2zCFUbKiaBI7eAqc37-288" style="edgeStyle=orthogonalEdgeStyle;rounded=0;orthogonalLoop=1;jettySize=auto;html=1;" parent="1" source="DB2zCFUbKiaBI7eAqc37-14" target="DB2zCFUbKiaBI7eAqc37-276" edge="1">
          <mxGeometry relative="1" as="geometry" />
        </mxCell>
        <mxCell id="DB2zCFUbKiaBI7eAqc37-14" value="选择操作" style="whiteSpace=wrap;html=1;rounded=0;" parent="1" vertex="1">
          <mxGeometry x="322" y="431" width="120" height="60" as="geometry" />
        </mxCell>
        <mxCell id="DB2zCFUbKiaBI7eAqc37-35" value="" style="edgeStyle=orthogonalEdgeStyle;rounded=0;orthogonalLoop=1;jettySize=auto;html=1;" parent="1" source="DB2zCFUbKiaBI7eAqc37-16" target="DB2zCFUbKiaBI7eAqc37-23" edge="1">
          <mxGeometry relative="1" as="geometry" />
        </mxCell>
        <mxCell id="DB2zCFUbKiaBI7eAqc37-16" value="获取系统数据" style="whiteSpace=wrap;html=1;rounded=0;" parent="1" vertex="1">
          <mxGeometry x="101" y="531" width="120" height="60" as="geometry" />
        </mxCell>
        <mxCell id="DB2zCFUbKiaBI7eAqc37-17" value="" style="edgeStyle=orthogonalEdgeStyle;rounded=0;orthogonalLoop=1;jettySize=auto;html=1;" parent="1" source="DB2zCFUbKiaBI7eAqc37-18" target="DB2zCFUbKiaBI7eAqc37-26" edge="1">
          <mxGeometry relative="1" as="geometry" />
        </mxCell>
        <mxCell id="DB2zCFUbKiaBI7eAqc37-18" value="刷新ApiToken" style="whiteSpace=wrap;html=1;rounded=0;" parent="1" vertex="1">
          <mxGeometry x="540" y="537" width="120" height="60" as="geometry" />
        </mxCell>
        <mxCell id="DB2zCFUbKiaBI7eAqc37-19" value="" style="edgeStyle=orthogonalEdgeStyle;rounded=0;orthogonalLoop=1;jettySize=auto;html=1;" parent="1" target="DB2zCFUbKiaBI7eAqc37-23" edge="1">
          <mxGeometry relative="1" as="geometry">
            <mxPoint x="160.99999999999977" y="710" as="sourcePoint" />
          </mxGeometry>
        </mxCell>
        <mxCell id="DB2zCFUbKiaBI7eAqc37-22" style="edgeStyle=orthogonalEdgeStyle;rounded=0;orthogonalLoop=1;jettySize=auto;html=1;exitX=0.5;exitY=1;exitDx=0;exitDy=0;" parent="1" source="DB2zCFUbKiaBI7eAqc37-23" target="DB2zCFUbKiaBI7eAqc37-29" edge="1">
          <mxGeometry relative="1" as="geometry" />
        </mxCell>
        <mxCell id="DB2zCFUbKiaBI7eAqc37-34" style="edgeStyle=orthogonalEdgeStyle;rounded=0;orthogonalLoop=1;jettySize=auto;html=1;entryX=0;entryY=0.5;entryDx=0;entryDy=0;exitX=0;exitY=0.5;exitDx=0;exitDy=0;" parent="1" source="DB2zCFUbKiaBI7eAqc37-23" target="DB2zCFUbKiaBI7eAqc37-16" edge="1">
          <mxGeometry relative="1" as="geometry" />
        </mxCell>
        <mxCell id="DB2zCFUbKiaBI7eAqc37-23" value="获取数据" style="rhombus;whiteSpace=wrap;html=1;rounded=0;" parent="1" vertex="1">
          <mxGeometry x="97" y="650" width="128" height="59" as="geometry" />
        </mxCell>
        <mxCell id="DB2zCFUbKiaBI7eAqc37-24" style="edgeStyle=orthogonalEdgeStyle;rounded=0;orthogonalLoop=1;jettySize=auto;html=1;entryX=1;entryY=0.5;entryDx=0;entryDy=0;exitX=1;exitY=0.5;exitDx=0;exitDy=0;" parent="1" source="DB2zCFUbKiaBI7eAqc37-26" target="DB2zCFUbKiaBI7eAqc37-18" edge="1">
          <mxGeometry relative="1" as="geometry" />
        </mxCell>
        <mxCell id="H8LBQZHTOZUB-KKmhrAg-1" style="edgeStyle=orthogonalEdgeStyle;rounded=0;orthogonalLoop=1;jettySize=auto;html=1;" edge="1" parent="1">
          <mxGeometry relative="1" as="geometry">
            <mxPoint x="600" y="706" as="sourcePoint" />
            <mxPoint x="382" y="829" as="targetPoint" />
            <Array as="points">
              <mxPoint x="600" y="769" />
              <mxPoint x="382" y="769" />
            </Array>
          </mxGeometry>
        </mxCell>
        <mxCell id="DB2zCFUbKiaBI7eAqc37-26" value="更新数据" style="rhombus;whiteSpace=wrap;html=1;rounded=0;" parent="1" vertex="1">
          <mxGeometry x="536" y="646" width="128" height="59" as="geometry" />
        </mxCell>
        <mxCell id="DB2zCFUbKiaBI7eAqc37-27" value="失败" style="text;html=1;align=center;verticalAlign=middle;resizable=0;points=[];autosize=1;strokeColor=none;fillColor=none;" parent="1" vertex="1">
          <mxGeometry x="16" y="600" width="42" height="26" as="geometry" />
        </mxCell>
        <mxCell id="DB2zCFUbKiaBI7eAqc37-28" value="失败" style="text;html=1;align=center;verticalAlign=middle;resizable=0;points=[];autosize=1;strokeColor=none;fillColor=none;" parent="1" vertex="1">
          <mxGeometry x="680" y="626" width="42" height="26" as="geometry" />
        </mxCell>
        <mxCell id="DB2zCFUbKiaBI7eAqc37-29" value="结束" style="rounded=1;whiteSpace=wrap;html=1;" parent="1" vertex="1">
          <mxGeometry x="322" y="828" width="120" height="60" as="geometry" />
        </mxCell>
        <mxCell id="DB2zCFUbKiaBI7eAqc37-30" value="成功" style="text;html=1;align=center;verticalAlign=middle;resizable=0;points=[];autosize=1;strokeColor=none;fillColor=none;" parent="1" vertex="1">
          <mxGeometry x="170" y="742" width="42" height="26" as="geometry" />
        </mxCell>
        <mxCell id="DB2zCFUbKiaBI7eAqc37-31" value="成功" style="text;html=1;align=center;verticalAlign=middle;resizable=0;points=[];autosize=1;strokeColor=none;fillColor=none;" parent="1" vertex="1">
          <mxGeometry x="588" y="792" width="42" height="26" as="geometry" />
        </mxCell>
        <mxCell id="DB2zCFUbKiaBI7eAqc37-32" value="失败" style="text;html=1;align=center;verticalAlign=middle;resizable=0;points=[];autosize=1;strokeColor=none;fillColor=none;" parent="1" vertex="1">
          <mxGeometry x="478" y="293" width="42" height="26" as="geometry" />
        </mxCell>
        <mxCell id="DB2zCFUbKiaBI7eAqc37-33" value="成功" style="text;html=1;align=center;verticalAlign=middle;resizable=0;points=[];autosize=1;strokeColor=none;fillColor=none;" parent="1" vertex="1">
          <mxGeometry x="393" y="393" width="42" height="26" as="geometry" />
        </mxCell>
        <mxCell id="DB2zCFUbKiaBI7eAqc37-285" style="edgeStyle=orthogonalEdgeStyle;rounded=0;orthogonalLoop=1;jettySize=auto;html=1;entryX=0;entryY=0.5;entryDx=0;entryDy=0;exitX=0;exitY=0.5;exitDx=0;exitDy=0;endArrow=none;startFill=1;startArrow=classic;" parent="1" source="DB2zCFUbKiaBI7eAqc37-276" target="DB2zCFUbKiaBI7eAqc37-277" edge="1">
          <mxGeometry relative="1" as="geometry" />
        </mxCell>
        <mxCell id="DB2zCFUbKiaBI7eAqc37-287" style="edgeStyle=orthogonalEdgeStyle;rounded=0;orthogonalLoop=1;jettySize=auto;html=1;" parent="1" source="DB2zCFUbKiaBI7eAqc37-276" target="DB2zCFUbKiaBI7eAqc37-277" edge="1">
          <mxGeometry relative="1" as="geometry" />
        </mxCell>
        <mxCell id="DB2zCFUbKiaBI7eAqc37-276" value="设置访问白名单" style="whiteSpace=wrap;html=1;rounded=0;" parent="1" vertex="1">
          <mxGeometry x="322" y="531" width="120" height="60" as="geometry" />
        </mxCell>
        <mxCell id="DB2zCFUbKiaBI7eAqc37-281" style="edgeStyle=orthogonalEdgeStyle;rounded=0;orthogonalLoop=1;jettySize=auto;html=1;entryX=0.5;entryY=0;entryDx=0;entryDy=0;" parent="1" source="DB2zCFUbKiaBI7eAqc37-277" target="DB2zCFUbKiaBI7eAqc37-29" edge="1">
          <mxGeometry relative="1" as="geometry" />
        </mxCell>
        <mxCell id="DB2zCFUbKiaBI7eAqc37-277" value="获取数据" style="rhombus;whiteSpace=wrap;html=1;rounded=0;" parent="1" vertex="1">
          <mxGeometry x="318" y="641" width="128" height="59" as="geometry" />
        </mxCell>
        <mxCell id="DB2zCFUbKiaBI7eAqc37-284" value="成功" style="text;html=1;align=center;verticalAlign=middle;resizable=0;points=[];autosize=1;strokeColor=none;fillColor=none;" parent="1" vertex="1">
          <mxGeometry x="398" y="745" width="42" height="26" as="geometry" />
        </mxCell>
        <mxCell id="DB2zCFUbKiaBI7eAqc37-286" value="失败" style="text;html=1;align=center;verticalAlign=middle;resizable=0;points=[];autosize=1;strokeColor=none;fillColor=none;" parent="1" vertex="1">
          <mxGeometry x="243" y="603" width="42" height="26" as="geometry" />
        </mxCell>
      </root>
    </mxGraphModel>
  </diagram>
</mxfile>
